<?xml version="1.0" encoding="UTF-8" standalone="no"?>
<svg
   width="465.24124"
   height="88.499779"
   viewBox="0 0 465.24124 88.499779"
   version="1.1"
   id="svg1"
   xmlns="http://www.w3.org/2000/svg"
   xmlns:svg="http://www.w3.org/2000/svg">
  <defs
     id="defs1" />
  <!--
  <style> svg { background: #331144; } </style>
  -->
  <g
     transform="translate(-10.808594,-5.5)"
     id="g1"
     style="fill:#6600ee;fill-opacity:1;stroke:#6600ee;stroke-opacity:1">
    <path
       fill="#ff1100"
       d="m 50,6.5 c -0.529585,0 -1.059121,0.1372703 -1.535156,0.4121094 L 12.84375,27.478516 c -0.952046,0.549663 -1.535128,1.558875 -1.535156,2.658203 v 35.859375 c 1.08e-4,4.364945 2.325315,8.393699 6.105468,10.576172 l 26.480469,15.291015 c 3.780248,2.182527 8.43069,2.182527 12.210938,0 L 82.585938,76.566406 c 3.780151,-2.18247 6.105356,-6.209276 6.105468,-10.574218 V 30.136719 C 88.691379,29.037391 88.108295,28.02818 87.15625,27.478516 L 51.535156,6.9121094 C 51.059121,6.6372703 50.529585,6.5 50,6.5 Z m 0,15.28125 c 3.334826,0 6.070265,2.735487 6.070312,6.070312 v 19.34961 l 16.75,9.669922 0.0039,0.002 c 1.654384,0.944009 2.678824,2.414312 2.998047,3.945312 0.319806,1.533803 -0.0092,3.078179 -0.75,4.361329 -0.740849,1.283149 -1.914116,2.342129 -3.402344,2.832031 -1.485811,0.489106 -3.271036,0.336301 -4.916016,-0.625 l -0.0059,-0.0039 L 50,57.714844 l -16.746094,9.667968 -0.0078,0.0039 c -1.645,0.961403 -3.430159,1.114095 -4.916016,0.625 -1.488275,-0.489892 -2.661477,-1.54885 -3.402344,-2.832031 -0.7409,-1.283181 -1.06984,-2.827491 -0.75,-4.361329 0.319256,-1.531034 1.343564,-3.001339 2.998047,-3.945312 l 0.0039,-0.002 c 0.0017,-10e-4 0.0022,-0.0029 0.0039,-0.0039 l 16.746094,-9.666016 v -19.34961 c 0,-3.334825 2.735485,-6.070312 6.070312,-6.070312 z"
       id="path1"
       style="fill:#6600ee;fill-opacity:1;stroke:#6600ee;stroke-opacity:1" />
    <text
       stroke-linejoin="round"
       stroke-width="4"
       stroke="#ff1100"
       fill="#ff1100"
       font-family="'Qurova DEMO'"
       font-size="90px"
       letter-spacing="8"
       x="115"
       y="75"
       id="text1"
       style="fill:#6600ee;fill-opacity:1;stroke:#6600ee;stroke-opacity:1">markon</text>
  </g>
</svg>
